<svg width="136" height="61" viewBox="0 0 136 61" fill="none" xmlns="http://www.w3.org/2000/svg">
<path d="M7.86364 21.1818V31H1.59091V7.72727H7.63636V16.8636H7.81818C8.21212 15.75 8.86742 14.8826 9.78409 14.2614C10.7008 13.6326 11.803 13.3182 13.0909 13.3182C14.3258 13.3182 15.3977 13.5985 16.3068 14.1591C17.2235 14.7197 17.9318 15.4924 18.4318 16.4773C18.9394 17.4621 19.1894 18.5909 19.1818 19.8636V31H12.9091V21.1818C12.9167 20.3182 12.7008 19.6402 12.2614 19.1477C11.8295 18.6553 11.2121 18.4091 10.4091 18.4091C9.90152 18.4091 9.45455 18.5227 9.06818 18.75C8.68939 18.9697 8.39394 19.2879 8.18182 19.7045C7.97727 20.1136 7.87121 20.6061 7.86364 21.1818ZM30.642 31.3182C28.7784 31.3182 27.1723 30.9621 25.8239 30.25C24.483 29.5303 23.4489 28.5 22.7216 27.1591C22.0019 25.8106 21.642 24.197 21.642 22.3182C21.642 20.5152 22.0057 18.9394 22.733 17.5909C23.4602 16.2424 24.4867 15.1932 25.8125 14.4432C27.1383 13.6932 28.7027 13.3182 30.5057 13.3182C31.8239 13.3182 33.017 13.5227 34.0852 13.9318C35.1534 14.3409 36.0663 14.9356 36.8239 15.7159C37.5814 16.4886 38.1648 17.428 38.5739 18.5341C38.983 19.6402 39.1875 20.8864 39.1875 22.2727V23.7273H23.5966V20.2727H33.4148C33.4072 19.7727 33.2784 19.3333 33.0284 18.9545C32.786 18.5682 32.4564 18.2689 32.0398 18.0568C31.6307 17.8371 31.1648 17.7273 30.642 17.7273C30.1345 17.7273 29.6686 17.8371 29.2443 18.0568C28.8201 18.2689 28.4792 18.5644 28.2216 18.9432C27.9716 19.322 27.839 19.7652 27.8239 20.2727V24C27.8239 24.5606 27.9413 25.0606 28.1761 25.5C28.411 25.9394 28.7481 26.2841 29.1875 26.5341C29.6269 26.7841 30.1572 26.9091 30.7784 26.9091C31.2102 26.9091 31.6042 26.8485 31.9602 26.7273C32.3239 26.6061 32.6345 26.4318 32.892 26.2045C33.1496 25.9697 33.339 25.6894 33.4602 25.3636H39.1875C38.9905 26.5758 38.5246 27.6288 37.7898 28.5227C37.0549 29.4091 36.0814 30.0985 34.8693 30.5909C33.6648 31.0758 32.2557 31.3182 30.642 31.3182ZM41.7472 31V13.5455H47.8381V16.8636H48.0199C48.3381 15.6364 48.8419 14.7386 49.5312 14.1705C50.2282 13.6023 51.0426 13.3182 51.9744 13.3182C52.2472 13.3182 52.5161 13.3409 52.7812 13.3864C53.054 13.4242 53.3153 13.4811 53.5653 13.5568V18.9091C53.2547 18.803 52.8722 18.7235 52.4176 18.6705C51.9631 18.6174 51.5729 18.5909 51.2472 18.5909C50.6335 18.5909 50.0805 18.7311 49.5881 19.0114C49.1032 19.2841 48.7206 19.6705 48.4403 20.1705C48.16 20.6629 48.0199 21.2424 48.0199 21.9091V31H41.7472ZM55.6222 31V13.5455H61.8949V31H55.6222ZM58.7585 11.7273C57.91 11.7273 57.1828 11.447 56.5767 10.8864C55.9706 10.3258 55.6676 9.65151 55.6676 8.86364C55.6676 8.07576 55.9706 7.40151 56.5767 6.84091C57.1828 6.2803 57.91 6 58.7585 6C59.6146 6 60.3419 6.2803 60.9403 6.84091C61.5464 7.40151 61.8494 8.07576 61.8494 8.86364C61.8494 9.65151 61.5464 10.3258 60.9403 10.8864C60.3419 11.447 59.6146 11.7273 58.7585 11.7273ZM75.5 13.5455V18.0909H64V13.5455H75.5ZM66.2273 9.36364H72.5V25.3864C72.5 25.6288 72.5417 25.8333 72.625 26C72.7083 26.1591 72.8371 26.2803 73.0114 26.3636C73.1856 26.4394 73.4091 26.4773 73.6818 26.4773C73.8712 26.4773 74.0909 26.4545 74.3409 26.4091C74.5985 26.3636 74.7879 26.3258 74.9091 26.2955L75.8182 30.7045C75.5379 30.7879 75.1364 30.8902 74.6136 31.0114C74.0985 31.1326 73.4848 31.2121 72.7727 31.25C71.3333 31.3258 70.125 31.178 69.1477 30.8068C68.1705 30.428 67.4356 29.8333 66.9432 29.0227C66.4508 28.2121 66.2121 27.197 66.2273 25.9773V9.36364ZM82.9233 31.2727C81.8097 31.2727 80.8248 31.0909 79.9688 30.7273C79.1203 30.3561 78.4536 29.7955 77.9688 29.0455C77.4839 28.2955 77.2415 27.3409 77.2415 26.1818C77.2415 25.2273 77.4044 24.4129 77.7301 23.7386C78.0559 23.0568 78.5104 22.5 79.0938 22.0682C79.6771 21.6364 80.3551 21.3068 81.1278 21.0795C81.9081 20.8523 82.7491 20.7045 83.6506 20.6364C84.6278 20.5606 85.4119 20.4697 86.0028 20.3636C86.6013 20.25 87.0331 20.0947 87.2983 19.8977C87.5634 19.6932 87.696 19.4242 87.696 19.0909V19.0455C87.696 18.5909 87.5218 18.2424 87.1733 18C86.8248 17.7576 86.3778 17.6364 85.8324 17.6364C85.2339 17.6364 84.7453 17.7689 84.3665 18.0341C83.9953 18.2917 83.7718 18.6894 83.696 19.2273H77.9233C77.9991 18.1667 78.3362 17.1894 78.9347 16.2955C79.5407 15.3939 80.4233 14.6742 81.5824 14.1364C82.7415 13.5909 84.1884 13.3182 85.9233 13.3182C87.1733 13.3182 88.2945 13.4659 89.2869 13.7614C90.2794 14.0492 91.1241 14.4545 91.821 14.9773C92.518 15.4924 93.0483 16.0985 93.4119 16.7955C93.7831 17.4848 93.9688 18.2348 93.9688 19.0455V31H88.1051V28.5455H87.9688C87.6203 29.197 87.196 29.7235 86.696 30.125C86.2036 30.5265 85.6392 30.8182 85.0028 31C84.3741 31.1818 83.6809 31.2727 82.9233 31.2727ZM84.9688 27.3182C85.446 27.3182 85.893 27.2197 86.3097 27.0227C86.7339 26.8258 87.0786 26.5417 87.3438 26.1705C87.6089 25.7992 87.7415 25.3485 87.7415 24.8182V23.3636C87.5748 23.4318 87.3968 23.4962 87.2074 23.5568C87.0256 23.6174 86.8286 23.6742 86.6165 23.7273C86.4119 23.7803 86.1922 23.8295 85.9574 23.875C85.7301 23.9205 85.4915 23.9621 85.2415 24C84.7566 24.0758 84.3589 24.2008 84.0483 24.375C83.7453 24.5417 83.518 24.75 83.3665 25C83.2225 25.2424 83.1506 25.5152 83.1506 25.8182C83.1506 26.303 83.321 26.6742 83.6619 26.9318C84.0028 27.1894 84.4384 27.3182 84.9688 27.3182ZM105.375 37.9091C103.625 37.9091 102.125 37.6591 100.875 37.1591C99.6326 36.6667 98.6667 35.9848 97.9773 35.1136C97.2955 34.25 96.9129 33.2576 96.8295 32.1364H102.875C102.936 32.5076 103.087 32.8068 103.33 33.0341C103.572 33.2614 103.883 33.4242 104.261 33.5227C104.648 33.6288 105.08 33.6818 105.557 33.6818C106.367 33.6818 107.038 33.4848 107.568 33.0909C108.106 32.697 108.375 31.9848 108.375 30.9545V28H108.193C107.966 28.5909 107.617 29.0947 107.148 29.5114C106.678 29.9205 106.114 30.2348 105.455 30.4545C104.795 30.6667 104.072 30.7727 103.284 30.7727C102.042 30.7727 100.898 30.4848 99.8523 29.9091C98.8144 29.3333 97.9811 28.4205 97.3523 27.1705C96.7311 25.9205 96.4205 24.2879 96.4205 22.2727C96.4205 20.1667 96.7462 18.4545 97.3977 17.1364C98.0568 15.8182 98.9053 14.8523 99.9432 14.2386C100.989 13.625 102.087 13.3182 103.239 13.3182C104.102 13.3182 104.86 13.4697 105.511 13.7727C106.163 14.0682 106.708 14.4659 107.148 14.9659C107.587 15.4583 107.92 16 108.148 16.5909H108.284V13.5455H114.557V30.9545C114.557 32.4318 114.174 33.6856 113.409 34.7159C112.652 35.7538 111.583 36.5455 110.205 37.0909C108.826 37.6364 107.216 37.9091 105.375 37.9091ZM105.602 26.3182C106.178 26.3182 106.67 26.1591 107.08 25.8409C107.496 25.5152 107.814 25.053 108.034 24.4545C108.261 23.8485 108.375 23.1212 108.375 22.2727C108.375 21.4091 108.261 20.6705 108.034 20.0568C107.814 19.4356 107.496 18.9621 107.08 18.6364C106.67 18.303 106.178 18.1364 105.602 18.1364C105.027 18.1364 104.534 18.303 104.125 18.6364C103.723 18.9621 103.413 19.4356 103.193 20.0568C102.981 20.6705 102.875 21.4091 102.875 22.2727C102.875 23.1364 102.981 23.8712 103.193 24.4773C103.413 25.0758 103.723 25.5341 104.125 25.8523C104.534 26.1629 105.027 26.3182 105.602 26.3182ZM126.111 31.3182C124.247 31.3182 122.641 30.9621 121.293 30.25C119.952 29.5303 118.918 28.5 118.19 27.1591C117.471 25.8106 117.111 24.197 117.111 22.3182C117.111 20.5152 117.474 18.9394 118.202 17.5909C118.929 16.2424 119.955 15.1932 121.281 14.4432C122.607 13.6932 124.171 13.3182 125.974 13.3182C127.293 13.3182 128.486 13.5227 129.554 13.9318C130.622 14.3409 131.535 14.9356 132.293 15.7159C133.05 16.4886 133.634 17.428 134.043 18.5341C134.452 19.6402 134.656 20.8864 134.656 22.2727V23.7273H119.065V20.2727H128.884C128.876 19.7727 128.747 19.3333 128.497 18.9545C128.255 18.5682 127.925 18.2689 127.509 18.0568C127.099 17.8371 126.634 17.7273 126.111 17.7273C125.603 17.7273 125.137 17.8371 124.713 18.0568C124.289 18.2689 123.948 18.5644 123.69 18.9432C123.44 19.322 123.308 19.7652 123.293 20.2727V24C123.293 24.5606 123.41 25.0606 123.645 25.5C123.88 25.9394 124.217 26.2841 124.656 26.5341C125.096 26.7841 125.626 26.9091 126.247 26.9091C126.679 26.9091 127.073 26.8485 127.429 26.7273C127.793 26.6061 128.103 26.4318 128.361 26.2045C128.618 25.9697 128.808 25.6894 128.929 25.3636H134.656C134.459 26.5758 133.993 27.6288 133.259 28.5227C132.524 29.4091 131.55 30.0985 130.338 30.5909C129.134 31.0758 127.724 31.3182 126.111 31.3182Z" fill="black" style="fill:black;fill-opacity:1;"/>
<path d="M19.2036 29.7273V53H12.9309V29.7273H19.2036ZM27.5833 53.2727C26.4697 53.2727 25.4848 53.0909 24.6287 52.7273C23.7803 52.3561 23.1136 51.7955 22.6287 51.0455C22.1439 50.2955 21.9015 49.3409 21.9015 48.1818C21.9015 47.2273 22.0644 46.4129 22.3901 45.7386C22.7159 45.0568 23.1704 44.5 23.7537 44.0682C24.3371 43.6364 25.0151 43.3068 25.7878 43.0795C26.5681 42.8523 27.409 42.7045 28.3106 42.6364C29.2878 42.5606 30.0719 42.4697 30.6628 42.3636C31.2613 42.25 31.6931 42.0947 31.9583 41.8977C32.2234 41.6932 32.356 41.4242 32.356 41.0909V41.0455C32.356 40.5909 32.1818 40.2424 31.8333 40C31.4848 39.7576 31.0378 39.6364 30.4924 39.6364C29.8939 39.6364 29.4053 39.7689 29.0265 40.0341C28.6553 40.2917 28.4318 40.6894 28.356 41.2273H22.5833C22.659 40.1667 22.9962 39.1894 23.5947 38.2955C24.2007 37.3939 25.0833 36.6742 26.2424 36.1364C27.4015 35.5909 28.8484 35.3182 30.5833 35.3182C31.8333 35.3182 32.9545 35.4659 33.9469 35.7614C34.9394 36.0492 35.784 36.4545 36.481 36.9773C37.178 37.4924 37.7083 38.0985 38.0719 38.7955C38.4431 39.4848 38.6287 40.2348 38.6287 41.0455V53H32.7651V50.5455H32.6287C32.2803 51.197 31.856 51.7235 31.356 52.125C30.8636 52.5265 30.2992 52.8182 29.6628 53C29.034 53.1818 28.3409 53.2727 27.5833 53.2727ZM29.6287 49.3182C30.106 49.3182 30.553 49.2197 30.9697 49.0227C31.3939 48.8258 31.7386 48.5417 32.0037 48.1705C32.2689 47.7992 32.4015 47.3485 32.4015 46.8182V45.3636C32.2348 45.4318 32.0568 45.4962 31.8674 45.5568C31.6856 45.6174 31.4886 45.6742 31.2765 45.7273C31.0719 45.7803 30.8522 45.8295 30.6174 45.875C30.3901 45.9205 30.1515 45.9621 29.9015 46C29.4166 46.0758 29.0189 46.2008 28.7083 46.375C28.4053 46.5417 28.178 46.75 28.0265 47C27.8825 47.2424 27.8106 47.5152 27.8106 47.8182C27.8106 48.303 27.981 48.6742 28.3219 48.9318C28.6628 49.1894 29.0984 49.3182 29.6287 49.3182ZM41.695 53V29.7273H47.9677V38.5909H48.0586C48.2859 38 48.6192 37.4583 49.0586 36.9659C49.498 36.4659 50.0435 36.0682 50.695 35.7727C51.3465 35.4697 52.1041 35.3182 52.9677 35.3182C54.1192 35.3182 55.2139 35.625 56.2518 36.2386C57.2973 36.8523 58.1458 37.8182 58.7973 39.1364C59.4564 40.4545 59.7859 42.1667 59.7859 44.2727C59.7859 46.2879 59.4715 47.9583 58.8427 49.2841C58.2215 50.6098 57.3882 51.5985 56.3427 52.25C55.3048 52.9015 54.1647 53.2273 52.9223 53.2273C52.1041 53.2273 51.373 53.0947 50.7291 52.8295C50.0927 52.5568 49.5473 52.1894 49.0927 51.7273C48.6458 51.2576 48.3011 50.7273 48.0586 50.1364H47.9223V53H41.695ZM47.8314 44.2727C47.8314 45.1212 47.9412 45.8561 48.1609 46.4773C48.3882 47.0909 48.7064 47.5682 49.1155 47.9091C49.5321 48.2424 50.0283 48.4091 50.6041 48.4091C51.1798 48.4091 51.6685 48.2462 52.07 47.9205C52.4791 47.5871 52.7897 47.1136 53.0018 46.5C53.2215 45.8788 53.3314 45.1364 53.3314 44.2727C53.3314 43.4091 53.2215 42.6705 53.0018 42.0568C52.7897 41.4356 52.4791 40.9621 52.07 40.6364C51.6685 40.303 51.1798 40.1364 50.6041 40.1364C50.0283 40.1364 49.5321 40.303 49.1155 40.6364C48.7064 40.9621 48.3882 41.4356 48.1609 42.0568C47.9412 42.6705 47.8314 43.4091 47.8314 44.2727Z" fill="black" style="fill:black;fill-opacity:1;"/>
<path d="M87.6656 46.0631C87.5032 48.1201 86.7415 50.0844 85.4744 51.713C84.2074 53.3417 82.4908 54.5631 80.5368 55.2264C78.5829 55.8896 76.4774 55.9654 74.4808 55.4445C72.4842 54.9237 70.6841 53.8289 69.3032 52.2957" stroke="#8B5D9B" style="stroke:#8B5D9B;stroke:color(display-p3 0.5436 0.3630 0.6092);stroke-opacity:1;" stroke-width="3" stroke-linecap="round" stroke-linejoin="round"/>
<path d="M65.7755 47.2795C65.9295 45.33 66.6518 43.4685 67.853 41.9253C69.0541 40.3821 70.6814 39.2249 72.5334 38.597C74.3854 37.969 76.3809 37.8979 78.2729 38.3924C80.1649 38.8869 81.8705 39.9252 83.1784 41.379" stroke="#8B5D9B" style="stroke:#8B5D9B;stroke:color(display-p3 0.5436 0.3630 0.6092);stroke-opacity:1;" stroke-width="3" stroke-linecap="round" stroke-linejoin="round"/>
<path d="M77.0003 50.0006C78.6572 50.0006 80.0003 48.6575 80.0003 47.0006C80.0003 45.3438 78.6572 44.0006 77.0003 44.0006C75.3435 44.0006 74.0003 45.3438 74.0003 47.0006C74.0003 48.6575 75.3435 50.0006 77.0003 50.0006Z" stroke="#8B5D9B" style="stroke:#8B5D9B;stroke:color(display-p3 0.5436 0.3630 0.6092);stroke-opacity:1;" stroke-width="3" stroke-linecap="round" stroke-linejoin="round"/>
<path d="M86.0003 35.5006C87.9333 35.5006 89.5003 37.0676 89.5003 39.0006C89.5003 40.9336 87.9333 42.5006 86.0003 42.5006C84.0673 42.5006 82.5003 40.9336 82.5003 39.0006C82.5003 37.0676 84.0673 35.5006 86.0003 35.5006Z" stroke="#8B5D9B" style="stroke:#8B5D9B;stroke:color(display-p3 0.5436 0.3630 0.6092);stroke-opacity:1;" stroke-width="3" stroke-linecap="round" stroke-linejoin="round"/>
<path d="M67.0003 51.5006C68.9333 51.5006 70.5003 53.0676 70.5003 55.0006C70.5003 56.9336 68.9333 58.5006 67.0003 58.5006C65.0673 58.5006 63.5003 56.9336 63.5003 55.0006C63.5003 53.0676 65.0673 51.5006 67.0003 51.5006Z" stroke="#8B5D9B" style="stroke:#8B5D9B;stroke:color(display-p3 0.5436 0.3630 0.6092);stroke-opacity:1;" stroke-width="3" stroke-linecap="round" stroke-linejoin="round"/>
</svg>
