<svg width="136" height="52" viewBox="0 0 136 52" fill="none" xmlns="http://www.w3.org/2000/svg">
<path d="M7.86364 21.1818V31H1.59091V7.72727H7.63636V16.8636H7.81818C8.21212 15.75 8.86742 14.8826 9.78409 14.2614C10.7008 13.6326 11.803 13.3182 13.0909 13.3182C14.3258 13.3182 15.3977 13.5985 16.3068 14.1591C17.2235 14.7197 17.9318 15.4924 18.4318 16.4773C18.9394 17.4621 19.1894 18.5909 19.1818 19.8636V31H12.9091V21.1818C12.9167 20.3182 12.7008 19.6402 12.2614 19.1477C11.8295 18.6553 11.2121 18.4091 10.4091 18.4091C9.90152 18.4091 9.45455 18.5227 9.06818 18.75C8.68939 18.9697 8.39394 19.2879 8.18182 19.7045C7.97727 20.1136 7.87121 20.6061 7.86364 21.1818ZM30.642 31.3182C28.7784 31.3182 27.1723 30.9621 25.8239 30.25C24.483 29.5303 23.4489 28.5 22.7216 27.1591C22.0019 25.8106 21.642 24.197 21.642 22.3182C21.642 20.5152 22.0057 18.9394 22.733 17.5909C23.4602 16.2424 24.4867 15.1932 25.8125 14.4432C27.1383 13.6932 28.7027 13.3182 30.5057 13.3182C31.8239 13.3182 33.017 13.5227 34.0852 13.9318C35.1534 14.3409 36.0663 14.9356 36.8239 15.7159C37.5814 16.4886 38.1648 17.428 38.5739 18.5341C38.983 19.6402 39.1875 20.8864 39.1875 22.2727V23.7273H23.5966V20.2727H33.4148C33.4072 19.7727 33.2784 19.3333 33.0284 18.9545C32.786 18.5682 32.4564 18.2689 32.0398 18.0568C31.6307 17.8371 31.1648 17.7273 30.642 17.7273C30.1345 17.7273 29.6686 17.8371 29.2443 18.0568C28.8201 18.2689 28.4792 18.5644 28.2216 18.9432C27.9716 19.322 27.839 19.7652 27.8239 20.2727V24C27.8239 24.5606 27.9413 25.0606 28.1761 25.5C28.411 25.9394 28.7481 26.2841 29.1875 26.5341C29.6269 26.7841 30.1572 26.9091 30.7784 26.9091C31.2102 26.9091 31.6042 26.8485 31.9602 26.7273C32.3239 26.6061 32.6345 26.4318 32.892 26.2045C33.1496 25.9697 33.339 25.6894 33.4602 25.3636H39.1875C38.9905 26.5758 38.5246 27.6288 37.7898 28.5227C37.0549 29.4091 36.0814 30.0985 34.8693 30.5909C33.6648 31.0758 32.2557 31.3182 30.642 31.3182ZM41.7472 31V13.5455H47.8381V16.8636H48.0199C48.3381 15.6364 48.8419 14.7386 49.5312 14.1705C50.2282 13.6023 51.0426 13.3182 51.9744 13.3182C52.2472 13.3182 52.5161 13.3409 52.7812 13.3864C53.054 13.4242 53.3153 13.4811 53.5653 13.5568V18.9091C53.2547 18.803 52.8722 18.7235 52.4176 18.6705C51.9631 18.6174 51.5729 18.5909 51.2472 18.5909C50.6335 18.5909 50.0805 18.7311 49.5881 19.0114C49.1032 19.2841 48.7206 19.6705 48.4403 20.1705C48.16 20.6629 48.0199 21.2424 48.0199 21.9091V31H41.7472ZM55.6222 31V13.5455H61.8949V31H55.6222ZM58.7585 11.7273C57.91 11.7273 57.1828 11.447 56.5767 10.8864C55.9706 10.3258 55.6676 9.65151 55.6676 8.86364C55.6676 8.07576 55.9706 7.40151 56.5767 6.84091C57.1828 6.2803 57.91 6 58.7585 6C59.6146 6 60.3419 6.2803 60.9403 6.84091C61.5464 7.40151 61.8494 8.07576 61.8494 8.86364C61.8494 9.65151 61.5464 10.3258 60.9403 10.8864C60.3419 11.447 59.6146 11.7273 58.7585 11.7273ZM75.5 13.5455V18.0909H64V13.5455H75.5ZM66.2273 9.36364H72.5V25.3864C72.5 25.6288 72.5417 25.8333 72.625 26C72.7083 26.1591 72.8371 26.2803 73.0114 26.3636C73.1856 26.4394 73.4091 26.4773 73.6818 26.4773C73.8712 26.4773 74.0909 26.4545 74.3409 26.4091C74.5985 26.3636 74.7879 26.3258 74.9091 26.2955L75.8182 30.7045C75.5379 30.7879 75.1364 30.8902 74.6136 31.0114C74.0985 31.1326 73.4848 31.2121 72.7727 31.25C71.3333 31.3258 70.125 31.178 69.1477 30.8068C68.1705 30.428 67.4356 29.8333 66.9432 29.0227C66.4508 28.2121 66.2121 27.197 66.2273 25.9773V9.36364ZM82.9233 31.2727C81.8097 31.2727 80.8248 31.0909 79.9688 30.7273C79.1203 30.3561 78.4536 29.7955 77.9688 29.0455C77.4839 28.2955 77.2415 27.3409 77.2415 26.1818C77.2415 25.2273 77.4044 24.4129 77.7301 23.7386C78.0559 23.0568 78.5104 22.5 79.0938 22.0682C79.6771 21.6364 80.3551 21.3068 81.1278 21.0795C81.9081 20.8523 82.7491 20.7045 83.6506 20.6364C84.6278 20.5606 85.4119 20.4697 86.0028 20.3636C86.6013 20.25 87.0331 20.0947 87.2983 19.8977C87.5634 19.6932 87.696 19.4242 87.696 19.0909V19.0455C87.696 18.5909 87.5218 18.2424 87.1733 18C86.8248 17.7576 86.3778 17.6364 85.8324 17.6364C85.2339 17.6364 84.7453 17.7689 84.3665 18.0341C83.9953 18.2917 83.7718 18.6894 83.696 19.2273H77.9233C77.9991 18.1667 78.3362 17.1894 78.9347 16.2955C79.5407 15.3939 80.4233 14.6742 81.5824 14.1364C82.7415 13.5909 84.1884 13.3182 85.9233 13.3182C87.1733 13.3182 88.2945 13.4659 89.2869 13.7614C90.2794 14.0492 91.1241 14.4545 91.821 14.9773C92.518 15.4924 93.0483 16.0985 93.4119 16.7955C93.7831 17.4848 93.9688 18.2348 93.9688 19.0455V31H88.1051V28.5455H87.9688C87.6203 29.197 87.196 29.7235 86.696 30.125C86.2036 30.5265 85.6392 30.8182 85.0028 31C84.3741 31.1818 83.6809 31.2727 82.9233 31.2727ZM84.9688 27.3182C85.446 27.3182 85.893 27.2197 86.3097 27.0227C86.7339 26.8258 87.0786 26.5417 87.3438 26.1705C87.6089 25.7992 87.7415 25.3485 87.7415 24.8182V23.3636C87.5748 23.4318 87.3968 23.4962 87.2074 23.5568C87.0256 23.6174 86.8286 23.6742 86.6165 23.7273C86.4119 23.7803 86.1922 23.8295 85.9574 23.875C85.7301 23.9205 85.4915 23.9621 85.2415 24C84.7566 24.0758 84.3589 24.2008 84.0483 24.375C83.7453 24.5417 83.518 24.75 83.3665 25C83.2225 25.2424 83.1506 25.5152 83.1506 25.8182C83.1506 26.303 83.321 26.6742 83.6619 26.9318C84.0028 27.1894 84.4384 27.3182 84.9688 27.3182ZM105.375 37.9091C103.625 37.9091 102.125 37.6591 100.875 37.1591C99.6326 36.6667 98.6667 35.9848 97.9773 35.1136C97.2955 34.25 96.9129 33.2576 96.8295 32.1364H102.875C102.936 32.5076 103.087 32.8068 103.33 33.0341C103.572 33.2614 103.883 33.4242 104.261 33.5227C104.648 33.6288 105.08 33.6818 105.557 33.6818C106.367 33.6818 107.038 33.4848 107.568 33.0909C108.106 32.697 108.375 31.9848 108.375 30.9545V28H108.193C107.966 28.5909 107.617 29.0947 107.148 29.5114C106.678 29.9205 106.114 30.2348 105.455 30.4545C104.795 30.6667 104.072 30.7727 103.284 30.7727C102.042 30.7727 100.898 30.4848 99.8523 29.9091C98.8144 29.3333 97.9811 28.4205 97.3523 27.1705C96.7311 25.9205 96.4205 24.2879 96.4205 22.2727C96.4205 20.1667 96.7462 18.4545 97.3977 17.1364C98.0568 15.8182 98.9053 14.8523 99.9432 14.2386C100.989 13.625 102.087 13.3182 103.239 13.3182C104.102 13.3182 104.86 13.4697 105.511 13.7727C106.163 14.0682 106.708 14.4659 107.148 14.9659C107.587 15.4583 107.92 16 108.148 16.5909H108.284V13.5455H114.557V30.9545C114.557 32.4318 114.174 33.6856 113.409 34.7159C112.652 35.7538 111.583 36.5455 110.205 37.0909C108.826 37.6364 107.216 37.9091 105.375 37.9091ZM105.602 26.3182C106.178 26.3182 106.67 26.1591 107.08 25.8409C107.496 25.5152 107.814 25.053 108.034 24.4545C108.261 23.8485 108.375 23.1212 108.375 22.2727C108.375 21.4091 108.261 20.6705 108.034 20.0568C107.814 19.4356 107.496 18.9621 107.08 18.6364C106.67 18.303 106.178 18.1364 105.602 18.1364C105.027 18.1364 104.534 18.303 104.125 18.6364C103.723 18.9621 103.413 19.4356 103.193 20.0568C102.981 20.6705 102.875 21.4091 102.875 22.2727C102.875 23.1364 102.981 23.8712 103.193 24.4773C103.413 25.0758 103.723 25.5341 104.125 25.8523C104.534 26.1629 105.027 26.3182 105.602 26.3182ZM126.111 31.3182C124.247 31.3182 122.641 30.9621 121.293 30.25C119.952 29.5303 118.918 28.5 118.19 27.1591C117.471 25.8106 117.111 24.197 117.111 22.3182C117.111 20.5152 117.474 18.9394 118.202 17.5909C118.929 16.2424 119.955 15.1932 121.281 14.4432C122.607 13.6932 124.171 13.3182 125.974 13.3182C127.293 13.3182 128.486 13.5227 129.554 13.9318C130.622 14.3409 131.535 14.9356 132.293 15.7159C133.05 16.4886 133.634 17.428 134.043 18.5341C134.452 19.6402 134.656 20.8864 134.656 22.2727V23.7273H119.065V20.2727H128.884C128.876 19.7727 128.747 19.3333 128.497 18.9545C128.255 18.5682 127.925 18.2689 127.509 18.0568C127.099 17.8371 126.634 17.7273 126.111 17.7273C125.603 17.7273 125.137 17.8371 124.713 18.0568C124.289 18.2689 123.948 18.5644 123.69 18.9432C123.44 19.322 123.308 19.7652 123.293 20.2727V24C123.293 24.5606 123.41 25.0606 123.645 25.5C123.88 25.9394 124.217 26.2841 124.656 26.5341C125.096 26.7841 125.626 26.9091 126.247 26.9091C126.679 26.9091 127.073 26.8485 127.429 26.7273C127.793 26.6061 128.103 26.4318 128.361 26.2045C128.618 25.9697 128.808 25.6894 128.929 25.3636H134.656C134.459 26.5758 133.993 27.6288 133.259 28.5227C132.524 29.4091 131.55 30.0985 130.338 30.5909C129.134 31.0758 127.724 31.3182 126.111 31.3182Z" fill="black" style="fill:black;fill-opacity:1;"/>
<path d="M7.26136 43.7045V38.1818H10.7898V48H7.44034V46.1335H7.33807C7.125 46.7599 6.75213 47.25 6.21946 47.6037C5.68679 47.9531 5.05398 48.1278 4.32102 48.1278C3.63494 48.1278 3.03409 47.9702 2.51847 47.6548C2.0071 47.3395 1.60866 46.9048 1.32315 46.3509C1.0419 45.7969 0.899148 45.1619 0.894886 44.446V38.1818H4.4233V43.7045C4.42756 44.1903 4.55114 44.5717 4.79403 44.8487C5.04119 45.1257 5.38636 45.2642 5.82955 45.2642C6.12358 45.2642 6.37713 45.2024 6.5902 45.0788C6.80753 44.951 6.97372 44.772 7.08878 44.5419C7.2081 44.3075 7.26563 44.0284 7.26136 43.7045ZM16.1127 42.4773V48H12.5843V38.1818H15.9338V40.0483H16.036C16.2491 39.4261 16.6241 38.9382 17.161 38.5845C17.7022 38.2308 18.3329 38.054 19.0531 38.054C19.7477 38.054 20.3507 38.2138 20.862 38.5334C21.3777 38.8487 21.7761 39.2834 22.0574 39.8374C22.3429 40.3913 22.4835 41.0241 22.4792 41.7358V48H18.9508V42.4773C18.9551 41.9915 18.8315 41.6101 18.5801 41.3331C18.3329 41.0561 17.9877 40.9176 17.5446 40.9176C17.2548 40.9176 17.0012 40.9815 16.7839 41.1094C16.5708 41.233 16.4068 41.4119 16.2917 41.6463C16.1767 41.8764 16.117 42.1534 16.1127 42.4773ZM24.2211 48V38.1818H27.7495V48H24.2211ZM25.9853 37.1591C25.508 37.1591 25.0989 37.0014 24.758 36.6861C24.4171 36.3707 24.2466 35.9915 24.2466 35.5483C24.2466 35.1051 24.4171 34.7259 24.758 34.4105C25.0989 34.0952 25.508 33.9375 25.9853 33.9375C26.4668 33.9375 26.8759 34.0952 27.2125 34.4105C27.5534 34.7259 27.7239 35.1051 27.7239 35.5483C27.7239 35.9915 27.5534 36.3707 27.2125 36.6861C26.8759 37.0014 26.4668 37.1591 25.9853 37.1591ZM39.4421 38.1818L36.1438 48H32.0529L28.7546 38.1818H32.462L34.0472 44.6761H34.1495L35.7347 38.1818H39.4421ZM44.8514 48.179C43.8031 48.179 42.8997 47.9787 42.1412 47.5781C41.3869 47.1733 40.8052 46.5937 40.3961 45.8395C39.9913 45.081 39.7889 44.1733 39.7889 43.1165C39.7889 42.1023 39.9934 41.2159 40.4025 40.4574C40.8116 39.6989 41.389 39.1087 42.1348 38.6868C42.8805 38.2649 43.7605 38.054 44.7747 38.054C45.5162 38.054 46.1873 38.169 46.7882 38.3991C47.389 38.6293 47.9025 38.9638 48.3287 39.4027C48.7548 39.8374 49.0829 40.3658 49.313 40.9879C49.5431 41.6101 49.6582 42.3111 49.6582 43.0909V43.9091H40.8883V41.9659H46.411C46.4068 41.6847 46.3343 41.4375 46.1937 41.2244C46.0574 41.0071 45.872 40.8388 45.6376 40.7195C45.4075 40.5959 45.1454 40.5341 44.8514 40.5341C44.5659 40.5341 44.3038 40.5959 44.0652 40.7195C43.8265 40.8388 43.6348 41.005 43.4899 41.218C43.3493 41.4311 43.2747 41.6804 43.2662 41.9659V44.0625C43.2662 44.3778 43.3322 44.6591 43.4643 44.9062C43.5964 45.1534 43.786 45.3473 44.0332 45.4879C44.2804 45.6286 44.5787 45.6989 44.9281 45.6989C45.171 45.6989 45.3926 45.6648 45.5929 45.5966C45.7974 45.5284 45.9721 45.4304 46.117 45.3026C46.2619 45.1705 46.3684 45.0128 46.4366 44.8295H49.6582C49.5474 45.5114 49.2853 46.1037 48.872 46.6065C48.4586 47.1051 47.911 47.4929 47.2292 47.7699C46.5517 48.0426 45.7591 48.179 44.8514 48.179ZM51.098 48V38.1818H54.5241V40.0483H54.6264C54.8054 39.358 55.0888 38.853 55.4766 38.5334C55.8686 38.2138 56.3267 38.054 56.8509 38.054C57.0043 38.054 57.1555 38.0668 57.3047 38.0923C57.4581 38.1136 57.6051 38.1456 57.7457 38.1882V41.1989C57.571 41.1392 57.3558 41.0945 57.1001 41.0646C56.8445 41.0348 56.625 41.0199 56.4418 41.0199C56.0966 41.0199 55.7855 41.0987 55.5085 41.2564C55.2358 41.4098 55.0206 41.6271 54.8629 41.9084C54.7053 42.1854 54.6264 42.5114 54.6264 42.8864V48H51.098ZM67.8771 41.3778H64.63C64.6129 41.1776 64.5426 41.005 64.419 40.8601C64.2955 40.7152 64.1357 40.6044 63.9396 40.5277C63.7479 40.4467 63.5348 40.4062 63.3004 40.4062C62.9979 40.4062 62.7379 40.4616 62.5206 40.5724C62.3033 40.6832 62.1967 40.8409 62.201 41.0455C62.1967 41.1903 62.2585 41.3246 62.3864 41.4482C62.5185 41.5717 62.772 41.6676 63.147 41.7358L65.1413 42.0938C66.147 42.277 66.8949 42.5859 67.3849 43.0206C67.8793 43.451 68.1286 44.0284 68.1328 44.7528C68.1286 45.4517 67.9197 46.0589 67.5064 46.5746C67.0973 47.0859 66.5369 47.4822 65.8253 47.7635C65.1179 48.0405 64.3104 48.179 63.4027 48.179C61.9027 48.179 60.7287 47.8722 59.8807 47.2585C59.0369 46.6449 58.5661 45.8352 58.468 44.8295H61.9709C62.0178 45.1406 62.1712 45.3814 62.4311 45.5518C62.6953 45.718 63.0277 45.8011 63.4283 45.8011C63.7521 45.8011 64.0185 45.7457 64.2273 45.6349C64.4403 45.5241 64.549 45.3665 64.5533 45.1619C64.549 44.9744 64.4553 44.8253 64.272 44.7145C64.093 44.6037 63.8118 44.5142 63.4283 44.446L61.6896 44.1392C60.6882 43.9645 59.9382 43.6321 59.4396 43.142C58.9411 42.652 58.6939 42.0213 58.6982 41.25C58.6939 40.5682 58.8729 39.9908 59.2351 39.5178C59.6016 39.0405 60.1236 38.6783 60.8011 38.4311C61.483 38.1797 62.2905 38.054 63.2237 38.054C64.6428 38.054 65.7614 38.348 66.5795 38.9361C67.402 39.5241 67.8345 40.3381 67.8771 41.3778ZM74.1893 48.179C73.141 48.179 72.2376 47.9787 71.479 47.5781C70.7248 47.1733 70.1431 46.5937 69.734 45.8395C69.3292 45.081 69.1268 44.1733 69.1268 43.1165C69.1268 42.1023 69.3313 41.2159 69.7404 40.4574C70.1495 39.6989 70.7269 39.1087 71.4727 38.6868C72.2184 38.2649 73.0984 38.054 74.1126 38.054C74.854 38.054 75.5252 38.169 76.1261 38.3991C76.7269 38.6293 77.2404 38.9638 77.6665 39.4027C78.0927 39.8374 78.4208 40.3658 78.6509 40.9879C78.881 41.6101 78.9961 42.3111 78.9961 43.0909V43.9091H70.2262V41.9659H75.7489C75.7447 41.6847 75.6722 41.4375 75.5316 41.2244C75.3952 41.0071 75.2099 40.8388 74.9755 40.7195C74.7454 40.5959 74.4833 40.5341 74.1893 40.5341C73.9038 40.5341 73.6417 40.5959 73.4031 40.7195C73.1644 40.8388 72.9727 41.005 72.8278 41.218C72.6871 41.4311 72.6126 41.6804 72.604 41.9659V44.0625C72.604 44.3778 72.6701 44.6591 72.8022 44.9062C72.9343 45.1534 73.1239 45.3473 73.3711 45.4879C73.6183 45.6286 73.9165 45.6989 74.266 45.6989C74.5089 45.6989 74.7305 45.6648 74.9308 45.5966C75.1353 45.5284 75.31 45.4304 75.4549 45.3026C75.5998 45.1705 75.7063 45.0128 75.7745 44.8295H78.9961C78.8853 45.5114 78.6232 46.1037 78.2099 46.6065C77.7965 47.1051 77.2489 47.4929 76.5671 47.7699C75.8896 48.0426 75.0969 48.179 74.1893 48.179Z" fill="black" style="fill:black;fill-opacity:1;"/>
</svg>
